<?xml version="1.0" encoding="UTF-8" standalone="no"?>
<svg
   xmlns:dc="http://purl.org/dc/elements/1.1/"
   xmlns:cc="http://creativecommons.org/ns#"
   xmlns:rdf="http://www.w3.org/1999/02/22-rdf-syntax-ns#"
   xmlns:svg="http://www.w3.org/2000/svg"
   xmlns="http://www.w3.org/2000/svg"
   xmlns:sodipodi="http://sodipodi.sourceforge.net/DTD/sodipodi-0.dtd"
   xmlns:inkscape="http://www.inkscape.org/namespaces/inkscape"
   width="32"
   height="32"
   viewBox="0 0 8.4666667 8.4666667"
   version="1.1"
   id="svg8"
   sodipodi:docname="logo.svg"
   inkscape:version="1.0.2-2 (e86c870879, 2021-01-15)"
   inkscape:export-filename="C:\Desenv\guir\VisualStudioSolutionMerger\web\public\logo64.png"
   inkscape:export-xdpi="192"
   inkscape:export-ydpi="192">
  <sodipodi:namedview
     pagecolor="#ffffff"
     bordercolor="#666666"
     borderopacity="1"
     objecttolerance="10"
     gridtolerance="10"
     guidetolerance="10"
     inkscape:pageopacity="0"
     inkscape:pageshadow="2"
     inkscape:window-width="1920"
     inkscape:window-height="1017"
     id="namedview11"
     showgrid="false"
     inkscape:zoom="11.313708"
     inkscape:cx="8.776117"
     inkscape:cy="10.617307"
     inkscape:window-x="-8"
     inkscape:window-y="-8"
     inkscape:window-maximized="1"
     inkscape:current-layer="svg8">
    <inkscape:grid
       type="xygrid"
       id="grid836" />
  </sodipodi:namedview>
  <defs
     id="defs2" />
  <metadata
     id="metadata5">
    <rdf:RDF>
      <cc:Work
         rdf:about="">
        <dc:format>image/svg+xml</dc:format>
        <dc:type
           rdf:resource="http://purl.org/dc/dcmitype/StillImage" />
        <dc:title></dc:title>
      </cc:Work>
    </rdf:RDF>
  </metadata>
  <rect
     style="fill:#1e1e1e;fill-opacity:1;stroke:none;stroke-width:0.264583"
     id="rect8086"
     width="8.4666662"
     height="8.4666662"
     x="2.5585938e-05"
     y="-5.0585936e-06" />
  <path
     id="path627-7"
     style="mix-blend-mode:screen;fill:#76923c;fill-opacity:1;stroke-width:0.49107"
     d="M 4.2622194,4.7625 4.0761307,4.9485887 2.9051932,6.1201957 3.2760252,6.5105082 3.9646165,5.8044513 V 6.360696 c -6.5e-6,1.0169718 0.8244156,1.8413938 1.8413874,1.8413873 l 2.3960798,10e-8 V 7.6636563 L 5.8060039,7.6636421 C 5.0862189,7.6636486 4.5027132,7.0804809 4.5027197,6.360696 V 5.7480182 L 5.2470682,6.4742316 5.6185761,6.1020542 4.4476321,4.9485887 Z"
     sodipodi:nodetypes="cccccccccccccccc" />
  <path
     id="path627"
     style="mix-blend-mode:screen;fill:#ff6666;fill-opacity:1;stroke-width:0.49107"
     d="M 4.2622194,4.7625 4.0761307,4.9485887 2.9051932,6.1201957 3.2760252,6.5105082 3.9646165,5.8044513 V 6.360696 C 3.964636,7.0804874 3.3811238,7.6636616 2.6613324,7.6636421 l -2.39674908,1.42e-5 v 0.5384271 l 2.39674908,-10e-8 c 1.0169783,1.3e-5 1.8414003,-0.824409 1.8413873,-1.8413873 V 5.7480182 L 5.2470682,6.4742316 5.6185761,6.1020542 4.4476321,4.9485887 Z"
     sodipodi:nodetypes="cccccccccccccccc" />
  <g
     id="g980"
     transform="matrix(0.26458333,0,0,0.26458333,2.1166667,0.26458335)">
    <rect
       style="fill:#28282b;fill-opacity:1;stroke-width:0.843081"
       id="rect846"
       width="16"
       height="16"
       x="0"
       y="0" />
    <path
       id="rect848"
       style="fill:#c4c4c4;fill-opacity:1;stroke-width:2.48809"
       d="M 1,1 V 7.9863281 L 2,7.6523438 V 4 h 12 v 8 h -4 v 1 h 5 V 1 Z" />
    <g
       id="Canvas"
       transform="matrix(0.17344399,0,0,0.17344399,813.04409,510.18856)"
       style="fill:#d294e2;fill-opacity:1">
      <g
         id="icon-BrandVisualStudioIDE"
         style="fill:#d294e2;fill-opacity:1">
        <g
           id="BrandVisualStudioIDE2017RTW_40x"
           style="fill:#d294e2;fill-opacity:1">
          <g
             id="Vector"
             style="fill:#d294e2;fill-opacity:1">
            <path
               id="use6"
               d="m -4665.867,-2873.5498 18.8347,18.6324 11.2759,-4.797 v -36.5309 l -11.2759,-4.797 -18.8347,18.6344 -11.3415,-8.5485 -4.6723,1.5642 v 22.8267 l 4.6723,1.5642 z m 18.8347,-14.1962 v 19.5365 l -12.959,-9.7683 z m -30.1762,2.9765 6.8639,6.7896 -6.8639,6.7917 z"
               sodipodi:nodetypes="ccccccccccccccccccc"
               style="fill:#d294e2;fill-opacity:1" />
          </g>
        </g>
      </g>
    </g>
  </g>
</svg>
